<svg xmlns="http://www.w3.org/2000/svg" width="363.3013000488281" height="364.6752014160156" viewBox="-89.83199310302734 -76.4340591430664 363.3013000488281 364.6752014160156"><title>Neo4j Graph Visualization</title><desc>Created using Neo4j (http://www.neo4j.com/)</desc><g class="layer relationships"><g class="relationship" transform="translate(134.79050711537465 259.2411437472713) rotate(330.32169279514795)"><path class="outline" fill="#A5ABB6" stroke="none" d="M 21.40063509461097,12.933012701892217 L 21.90063509461097,12.06698729810778 A 57.570635622159344 57.570635622159344 0 0 0 24.238819974415723,13.34571366855237 L 23.779434166955657,14.233950506284437 A 58.570635622159344 58.570635622159344 0 0 1 21.40063509461097,12.933012701892217 Z M 74.26837672176518,15.822679585253496 L 73.86574452278744,14.907317737487084 A 57.570635622159344 57.570635622159344 0 0 0 76.27969904250226,13.778126327952714 L 74.94601151967628,11.090882834806196 L 82.77221511364846,11.114062690216512 L 78.05794907293689,17.36111765214807 L 76.72426155011091,14.673874159001555 A 58.570635622159344 58.570635622159344 0 0 1 74.26837672176518,15.822679585253496"/><text text-anchor="middle" pointer-events="none" font-size="8px" fill="#000000" x="48.85955565620106" y="23.251261565170367" font-family="sans-serif">PRODUCED</text></g><g class="relationship" transform="translate(134.79050711537465 259.2411437472713) rotate(330.32169279514795)"><path class="outline" fill="#A5ABB6" stroke="none" d="M 25 0.5 L 25.637642944934726 0.5 L 25.637642944934726 -0.5 L 25 -0.5 Z M 72.52826794493473 0.5 L 73.16591088986945 0.5 L 73.16591088986945 3.5 L 80.16591088986945 0 L 73.16591088986945 -3.5 L 73.16591088986945 -0.5 L 72.52826794493473 -0.5 Z"/><text text-anchor="middle" pointer-events="none" font-size="8px" fill="#000000" x="49.082955444934726" y="3" font-family="sans-serif">DIRECTED</text></g><g class="relationship" transform="translate(134.79050711537465 259.2411437472713) rotate(330.32169279514795)"><path class="outline" fill="#A5ABB6" stroke="none" d="M 21.40063509461097,-12.933012701892217 L 21.90063509461097,-12.06698729810778 A 57.570635622159344 57.570635622159344 0 0 1 31.51549055085953,-16.494448599366947 L 31.182500266009306,-17.437378856700633 A 58.570635622159344 58.570635622159344 0 0 0 21.40063509461097,-12.933012701892217 Z M 66.67855230542536,-18.554328573015248 L 66.40550422886182,-17.592328184301735 A 57.570635622159344 57.570635622159344 0 0 1 76.27969904250226,-13.778126327952714 L 74.94601151967628,-11.090882834806196 L 82.77221511364846,-11.114062690216512 L 78.05794907293689,-17.36111765214807 L 76.72426155011091,-14.673874159001555 A 58.570635622159344 58.570635622159344 0 0 0 66.67855230542536,-18.554328573015248"/><text text-anchor="middle" pointer-events="none" font-size="8px" fill="#000000" x="48.859555656201046" y="-17.251261565170367" font-family="sans-serif">WROTE</text></g><g class="relationship" transform="translate(244.46931681267716 17.530656077083833) rotate(204.00717295126367)"><path class="outline" fill="#A5ABB6" stroke="none" d="M 24.018736134675446,6.953439040707552 L 24.277555179777966,5.987513214418485 A 99.65728559668928 99.65728559668928 0 0 0 25.372312714826766,6.274200507660268 L 25.124478893017194,7.2430030658563425 A 100.65728559668928 100.65728559668928 0 0 1 24.018736134675446,6.953439040707552 Z M 71.81374612711433,8.006848636017608 L 71.59773605568431,7.030457500744049 A 99.65728559668928 99.65728559668928 0 0 0 72.7012857212847,6.779734944508123 L 72.0200351661337,3.858109081892165 L 79.63195449324711,5.677087959591757 L 73.60961979481938,10.675236094662733 L 72.92836923966837,7.753610232046775 A 100.65728559668928 100.65728559668928 0 0 1 71.81374612711433,8.006848636017608"/><text text-anchor="middle" pointer-events="none" font-size="8px" fill="#000000" x="48.43238508257573" y="12.869851715390354" transform="rotate(180 48.43238508257573 9.869851715390354)" font-family="sans-serif">DIRECTED</text></g><g class="relationship" transform="translate(244.46931681267716 17.530656077083833) rotate(204.00717295126367)"><path class="outline" fill="#A5ABB6" stroke="none" d="M 24.018736134675446,-6.953439040707552 L 24.277555179777966,-5.987513214418485 A 99.65728559668928 99.65728559668928 0 0 1 30.7658857632561,-7.495576331550893 L 30.57217315311847,-8.476634650242332 A 100.65728559668928 100.65728559668928 0 0 0 24.018736134675446,-6.953439040707552 Z M 66.32861319460572,-9.061617023032312 L 66.16709627685051,-8.074747079585421 A 99.65728559668928 99.65728559668928 0 0 1 72.7012857212847,-6.779734944508123 L 72.0200351661337,-3.858109081892165 L 79.63195449324711,-5.677087959591757 L 73.60961979481938,-10.675236094662733 L 72.92836923966837,-7.753610232046775 A 100.65728559668928 100.65728559668928 0 0 0 66.32861319460572,-9.061617023032312"/><text text-anchor="middle" pointer-events="none" font-size="8px" fill="#000000" x="48.43238508257568" y="-6.869851715390354" transform="rotate(180 48.43238508257568 -9.869851715390354)" font-family="sans-serif">WROTE</text></g><g class="relationship" transform="translate(48.11619104596865 -47.434060363316895) rotate(372.6011626616317)"><path class="outline" fill="#A5ABB6" stroke="none" d="M 24.018736134675446,6.953439040707552 L 24.277555179777966,5.987513214418485 A 99.44134094594708 99.44134094594708 0 0 0 25.3196811542768,6.260708245752525 L 25.071341915305066,7.229381370385866 A 100.44134094594708 100.44134094594708 0 0 1 24.018736134675446,6.953439040707552 Z M 71.75924668694665,7.993948908951339 L 71.54275835261103,7.017663704158906 A 99.44134094594708 99.44134094594708 0 0 0 72.59327088644926,6.778738008346641 L 71.91211345480521,3.8570904332075577 L 79.52397480038113,5.676311930367049 L 73.50148079530798,10.674268108532086 L 72.82032336366393,7.752620533393003 A 100.44134094594708 100.44134094594708 0 0 1 71.75924668694665,7.993948908951339"/><text text-anchor="middle" pointer-events="none" font-size="8px" fill="#000000" x="48.37843437927116" y="12.862496406545446" font-family="sans-serif">DIRECTED</text></g><g class="relationship" transform="translate(48.11619104596865 -47.434060363316895) rotate(372.6011626616317)"><path class="outline" fill="#A5ABB6" stroke="none" d="M 24.018736134675446,-6.953439040707552 L 24.277555179777966,-5.987513214418485 A 99.44134094594708 99.44134094594708 0 0 1 30.712628175609623,-7.484560577747857 L 30.51852138131363,-8.465540981429882 A 100.44134094594708 100.44134094594708 0 0 0 24.018736134675446,-6.953439040707552 Z M 66.27451187943407,-9.051085990952856 L 66.1126298930012,-8.064275866122074 A 99.44134094594708 99.44134094594708 0 0 1 72.59327088644926,-6.778738008346641 L 71.91211345480521,-3.8570904332075577 L 79.52397480038113,-5.676311930367049 L 73.50148079530798,-10.674268108532086 L 72.82032336366393,-7.752620533393003 A 100.44134094594708 100.44134094594708 0 0 0 66.27451187943407,-9.051085990952856"/><text text-anchor="middle" pointer-events="none" font-size="8px" fill="#000000" x="48.37843437927113" y="-6.862496406545446" font-family="sans-serif">WROTE</text></g><g class="relationship" transform="translate(-60.83199118047867 94.34819036727956) rotate(432.44342402579946)"><path class="outline" fill="#A5ABB6" stroke="none" d="M 21.40063509461097,12.933012701892217 L 21.90063509461097,12.06698729810778 A 57.17348635414333 57.17348635414333 0 0 0 31.32900302541579,16.42132145742189 L 30.993911071645535,17.363506886368036 A 58.17348635414333 58.17348635414333 0 0 1 21.40063509461097,12.933012701892217 Z M 66.48412199425962,18.484134277930885 L 66.20913858299916,17.52268530708971 A 57.17348635414333 57.17348635414333 0 0 0 75.89343283117243,13.771846371012035 L 74.56032952509871,11.084313008366037 L 82.38652789502538,11.109194217281013 L 77.67090390593741,17.355224187873368 L 76.33780059986368,14.667690825227368 A 58.17348635414333 58.17348635414333 0 0 1 66.48412199425962,18.484134277930885"/><text text-anchor="middle" pointer-events="none" font-size="8px" fill="#000000" x="48.667206119503206" y="23.198052623010227" font-family="sans-serif">WROTE</text></g><g class="relationship" transform="translate(-60.83199118047867 94.34819036727956) rotate(432.44342402579946)"><path class="outline" fill="#A5ABB6" stroke="none" d="M 25 0.5 L 25.44600712520434 0.5 L 25.44600712520434 -0.5 L 25 -0.5 Z M 72.33663212520435 0.5 L 72.78263925040868 0.5 L 72.78263925040868 3.5 L 79.78263925040868 0 L 72.78263925040868 -3.5 L 72.78263925040868 -0.5 L 72.33663212520435 -0.5 Z"/><text text-anchor="middle" pointer-events="none" font-size="8px" fill="#000000" x="48.89131962520434" y="3" font-family="sans-serif">DIRECTED</text></g><g class="relationship" transform="translate(-60.83199118047867 94.34819036727956) rotate(432.44342402579946)"><path class="outline" fill="#A5ABB6" stroke="none" d="M 21.40063509461097,-12.933012701892217 L 21.90063509461097,-12.06698729810778 A 57.17348635414333 57.17348635414333 0 0 1 24.061388413679232,-13.253143837359183 L 23.59918133933159,-14.139915860160421 A 58.17348635414333 58.17348635414333 0 0 0 21.40063509461097,-12.933012701892217 Z M 74.0674923416781,-15.7334868828422 L 73.66215108489926,-14.819321435260122 A 57.17348635414333 57.17348635414333 0 0 1 75.89343283117243,-13.771846371012035 L 74.56032952509871,-11.084313008366037 L 82.38652789502538,-11.109194217281013 L 77.67090390593741,-17.355224187873368 L 76.33780059986368,-14.667690825227368 A 58.17348635414333 58.17348635414333 0 0 0 74.0674923416781,-15.7334868828422"/><text text-anchor="middle" pointer-events="none" font-size="8px" fill="#000000" x="48.667206119503206" y="-17.198052623010227" font-family="sans-serif">PRODUCED</text></g></g><g class="layer nodes"><g class="node" transform="translate(134.79050711537465,259.2411437472713)"><circle class="outline" cx="0" cy="0" r="25" fill="#57C7E3" stroke="#23b3d7" stroke-width="2px"/><text text-anchor="middle" pointer-events="none" font-family="sans-serif" dy="1.5625" font-size="25" fill="#2A2C34"/><text text-anchor="middle" pointer-events="none" font-family="sans-serif" dy="1.5625" font-size="25" fill="#2A2C34"/><text text-anchor="middle" pointer-events="none" x="0" y="0" font-size="10px" fill="#2A2C34" font-family="sans-serif"> Cameron</text><text text-anchor="middle" pointer-events="none" x="0" y="10" font-size="10px" fill="#2A2C34" font-family="sans-serif"> Crowe</text></g><g class="node" transform="translate(226.1606526586904,207.1703715550975)"><circle class="outline" cx="0" cy="0" r="25" fill="#F79767" stroke="#f36924" stroke-width="2px"/><text text-anchor="middle" pointer-events="none" font-family="sans-serif" dy="1.5625" font-size="25" fill="#FFFFFF"/><text text-anchor="middle" pointer-events="none" font-family="sans-serif" dy="1.5625" font-size="25" fill="#FFFFFF"/><text text-anchor="middle" pointer-events="none" x="0" y="0" font-size="10px" fill="#FFFFFF" font-family="sans-serif"> Jerry</text><text text-anchor="middle" pointer-events="none" x="0" y="10" font-size="10px" fill="#FFFFFF" font-family="sans-serif"> Maguire</text></g><g class="node" transform="translate(244.46931681267716,17.530656077083833)"><circle class="outline" cx="0" cy="0" r="25" fill="#57C7E3" stroke="#23b3d7" stroke-width="2px"/><text text-anchor="middle" pointer-events="none" font-family="sans-serif" dy="1.5625" font-size="25" fill="#2A2C34"/><text text-anchor="middle" pointer-events="none" font-family="sans-serif" dy="1.5625" font-size="25" fill="#2A2C34"/><text text-anchor="middle" pointer-events="none" x="0" y="0" font-size="10px" fill="#2A2C34" font-family="sans-serif"> Lana</text><text text-anchor="middle" pointer-events="none" x="0" y="10" font-size="10px" fill="#2A2C34" font-family="sans-serif"> Wacho…</text></g><g class="node" transform="translate(149.48521821972793,-24.773238450102877)"><circle class="outline" cx="0" cy="0" r="25" fill="#F79767" stroke="#f36924" stroke-width="2px"/><text text-anchor="middle" pointer-events="none" font-family="sans-serif" dy="1.5625" font-size="25" fill="#FFFFFF"/><text text-anchor="middle" pointer-events="none" font-family="sans-serif" dy="1.5625" font-size="25" fill="#FFFFFF"/><text text-anchor="middle" pointer-events="none" x="0" y="0" font-size="10px" fill="#FFFFFF" font-family="sans-serif"> Speed</text><text text-anchor="middle" pointer-events="none" x="0" y="10" font-size="10px" fill="#FFFFFF" font-family="sans-serif"> Racer</text></g><g class="node" transform="translate(48.11619104596865,-47.434060363316895)"><circle class="outline" cx="0" cy="0" r="25" fill="#57C7E3" stroke="#23b3d7" stroke-width="2px"/><text text-anchor="middle" pointer-events="none" font-family="sans-serif" dy="1.5625" font-size="25" fill="#2A2C34"/><text text-anchor="middle" pointer-events="none" font-family="sans-serif" dy="1.5625" font-size="25" fill="#2A2C34"/><text text-anchor="middle" pointer-events="none" x="0" y="0" font-size="10px" fill="#2A2C34" font-family="sans-serif"> Lilly</text><text text-anchor="middle" pointer-events="none" x="0" y="10" font-size="10px" fill="#2A2C34" font-family="sans-serif"> Wacho…</text></g><g class="node" transform="translate(-60.83199118047867,94.34819036727956)"><circle class="outline" cx="0" cy="0" r="25" fill="#57C7E3" stroke="#23b3d7" stroke-width="2px"/><text text-anchor="middle" pointer-events="none" font-family="sans-serif" dy="1.5625" font-size="25" fill="#2A2C34"/><text text-anchor="middle" pointer-events="none" font-family="sans-serif" dy="1.5625" font-size="25" fill="#2A2C34"/><text text-anchor="middle" pointer-events="none" x="0" y="0" font-size="10px" fill="#2A2C34" font-family="sans-serif"> Nancy</text><text text-anchor="middle" pointer-events="none" x="0" y="10" font-size="10px" fill="#2A2C34" font-family="sans-serif"> Meyers</text></g><g class="node" transform="translate(-29.22458172365758,194.2500079468919)"><circle class="outline" cx="0" cy="0" r="25" fill="#F79767" stroke="#f36924" stroke-width="2px"/><text text-anchor="middle" pointer-events="none" font-family="sans-serif" dy="1.5625" font-size="25" fill="#FFFFFF"/><text text-anchor="middle" pointer-events="none" x="0" y="5" font-size="10px" fill="#FFFFFF" font-family="sans-serif"> Somethi…</text></g></g></svg>