<svg xmlns="http://www.w3.org/2000/svg" width="268.0123291015625" height="289.1784973144531" viewBox="-30.726810455322266 -40.463565826416016 268.0123291015625 289.1784973144531"><title>Neo4j Graph Visualization</title><desc>Created using Neo4j (http://www.neo4j.com/)</desc><g class="layer relationships"><g class="relationship" transform="translate(115.40339320566225 -11.463567213745531) rotate(391.0361756258259)"><path class="outline" fill="#A5ABB6" stroke="none" d="M 25 0.5 L 33.47762655014099 0.5 L 33.47762655014099 -0.5 L 25 -0.5 Z M 67.922939050141 0.5 L 76.40056560028198 0.5 L 76.40056560028198 3.5 L 83.40056560028198 0 L 76.40056560028198 -3.5 L 76.40056560028198 -0.5 L 67.922939050141 -0.5 Z"/><text text-anchor="middle" pointer-events="none" font-size="8px" fill="#000000" x="50.70028280014099" y="3" font-family="sans-serif">ORIGIN</text></g><g class="relationship" transform="translate(115.40339320566225 -11.463567213745531) rotate(509.26790029898615)"><path class="outline" fill="#A5ABB6" stroke="none" d="M 25 0.5 L 26.044360344670523 0.5 L 26.044360344670523 -0.5 L 25 -0.5 Z M 74.71623534467052 0.5 L 75.76059568934105 0.5 L 75.76059568934105 3.5 L 82.76059568934105 0 L 75.76059568934105 -3.5 L 75.76059568934105 -0.5 L 74.71623534467052 -0.5 Z"/><text text-anchor="middle" pointer-events="none" font-size="8px" fill="#000000" x="50.38029784467052" y="3" transform="rotate(180 50.38029784467052 0)" font-family="sans-serif">DESTINA…</text></g><g class="relationship" transform="translate(-1.7268113556812696 148.5333809579148) rotate(283.14412013377796)"><path class="outline" fill="#A5ABB6" stroke="none" d="M 25 0.5 L 33.1531462049309 0.5 L 33.1531462049309 -0.5 L 25 -0.5 Z M 67.59845870493089 0.5 L 75.7516049098618 0.5 L 75.7516049098618 3.5 L 82.7516049098618 0 L 75.7516049098618 -3.5 L 75.7516049098618 -0.5 L 67.59845870493089 -0.5 Z"/><text text-anchor="middle" pointer-events="none" font-size="8px" fill="#000000" x="50.3758024549309" y="3" font-family="sans-serif">ORIGIN</text></g><g class="relationship" transform="translate(-1.7268113556812696 148.5333809579148) rotate(401.04529480523706)"><path class="outline" fill="#A5ABB6" stroke="none" d="M 25 0.5 L 26.364132858910573 0.5 L 26.364132858910573 -0.5 L 25 -0.5 Z M 75.03600785891058 0.5 L 76.40014071782115 0.5 L 76.40014071782115 3.5 L 83.40014071782115 0 L 76.40014071782115 -3.5 L 76.40014071782115 -0.5 L 75.03600785891058 -0.5 Z"/><text text-anchor="middle" pointer-events="none" font-size="8px" fill="#000000" x="50.70007035891057" y="3" font-family="sans-serif">DESTINA…</text></g></g><g class="layer nodes"><g class="node" transform="translate(208.2855444768958,44.42550683198122)"><circle class="outline" cx="0" cy="0" r="25" fill="#F79767" stroke="#f36924" stroke-width="2px"/><text text-anchor="middle" pointer-events="none" font-family="sans-serif" dy="1.5625" font-size="25" fill="#FFFFFF"/><text text-anchor="middle" pointer-events="none" x="0" y="5" font-size="10px" fill="#FFFFFF" font-family="sans-serif"> MSN</text></g><g class="node" transform="translate(80.02756678833569,219.71492464677075)"><circle class="outline" cx="0" cy="0" r="25" fill="#F79767" stroke="#f36924" stroke-width="2px"/><text text-anchor="middle" pointer-events="none" font-family="sans-serif" dy="1.5625" font-size="25" fill="#FFFFFF"/><text text-anchor="middle" pointer-events="none" x="0" y="5" font-size="10px" fill="#FFFFFF" font-family="sans-serif"> GRR</text></g><g class="node" transform="translate(115.40339320566225,-11.463567213745531)"><circle class="outline" cx="0" cy="0" r="25" fill="#57C7E3" stroke="#23b3d7" stroke-width="2px"/><text text-anchor="middle" pointer-events="none" font-family="sans-serif" dy="1.5625" font-size="25" fill="#2A2C34"/><text text-anchor="middle" pointer-events="none" x="0" y="5" font-size="10px" fill="#2A2C34" font-family="sans-serif"> 11/30/20…</text></g><g class="node" transform="translate(22.776037447464848,43.604744441560925)"><circle class="outline" cx="0" cy="0" r="25" fill="#F79767" stroke="#f36924" stroke-width="2px"/><text text-anchor="middle" pointer-events="none" font-family="sans-serif" dy="1.5625" font-size="25" fill="#FFFFFF"/><text text-anchor="middle" pointer-events="none" x="0" y="5" font-size="10px" fill="#FFFFFF" font-family="sans-serif"> ORD</text></g><g class="node" transform="translate(-1.7268113556812696,148.5333809579148)"><circle class="outline" cx="0" cy="0" r="25" fill="#57C7E3" stroke="#23b3d7" stroke-width="2px"/><text text-anchor="middle" pointer-events="none" font-family="sans-serif" dy="1.5625" font-size="25" fill="#2A2C34"/><text text-anchor="middle" pointer-events="none" x="0" y="5" font-size="10px" fill="#2A2C34" font-family="sans-serif"> 11/17/20…</text></g></g></svg>