<svg xmlns="http://www.w3.org/2000/svg" width="323.61065673828125" height="413.95562744140625" viewBox="-67.4296875 -112.5955810546875 323.61065673828125 413.95562744140625"><title>Neo4j Graph Visualization</title><desc>Created using Neo4j (http://www.neo4j.com/)</desc><g class="layer relationships"><g class="relationship" transform="translate(170.39490655984642 272.3600528847051) rotate(244.6377031488305)"><path class="outline" fill="#A5ABB6" stroke="none" d="M 21.40063509461097,12.933012701892217 L 21.90063509461097,12.06698729810778 A 63.93964343975088 63.93964343975088 0 0 0 22.726037799027104,12.53540079133996 L 22.238946890476665,13.408752064773225 A 64.93964343975088 64.93964343975088 0 0 1 21.40063509461097,12.933012701892217 Z M 82.06676057685209,15.192569745531031 L 81.63256811337598,14.291749616614858 A 63.93964343975088 63.93964343975088 0 0 0 82.4844120715825,13.87334467404547 L 81.14186680305632,11.190515532643063 L 88.96810427960915,11.187877237718126 L 84.2744724296174,17.450450195915348 L 82.93192716109122,14.76762105451294 A 64.93964343975088 64.93964343975088 0 0 1 82.06676057685209,15.192569745531031"/><text text-anchor="middle" pointer-events="none" font-size="8px" fill="#000000" x="51.949986911538275" y="24.104651339954444" transform="rotate(180 51.949986911538275 21.104651339954444)" font-family="sans-serif">PublicTransport</text></g><g class="relationship" transform="translate(122.70988267502834 171.76483832289534) rotate(317.42744607108136)"><path class="outline" fill="#A5ABB6" stroke="none" d="M 24.018736134675446,-6.953439040707552 L 24.277555179777966,-5.987513214418485 A 138.2584195738938 138.2584195738938 0 0 1 48.5168529658042,-10.215722370853854 L 48.43335270317243,-11.212230126037127 A 139.2584195738938 139.2584195738938 0 0 0 24.018736134675446,-6.953439040707552 Z M 67.82138854378759,-11.482182803889941 L 67.76566536915833,-10.48373654704423 A 138.2584195738938 138.2584195738938 0 0 1 92.1132880793306,-6.932035800454822 L 91.41781171991242,-4.013763600420965 L 99.03850260597929,-5.795636328484739 L 93.04058989188816,-10.823065400499965 L 92.34511353246998,-7.904793200466108 A 139.2584195738938 139.2584195738938 0 0 0 67.82138854378759,-11.482182803889941"/><text text-anchor="middle" pointer-events="none" font-size="8px" fill="#000000" x="58.129627655738055" y="-8.18510611959772" font-family="sans-serif">trek</text></g><g class="relationship" transform="translate(213.5529201727903 88.31065957214075) rotate(276.63384697316224)"><path class="outline" fill="#A5ABB6" stroke="none" d="M 24.018736134675446,-6.953439040707552 L 24.277555179777966,-5.987513214418485 A 127.55989614747966 127.55989614747966 0 0 1 45.825040816704465,-9.817512488272982 L 45.73514230452566,-10.813463419548242 A 128.55989614747966 128.55989614747966 0 0 0 24.018736134675446,-6.953439040707552 Z M 65.12609566760109,-11.095124522133176 L 65.06516212449547,-10.09698269687756 A 127.55989614747966 127.55989614747966 0 0 1 86.7147981795831,-6.894438334416779 L 86.02283354083362,-3.975331460950121 L 93.64137499079689,-5.7663719895790795 L 87.63741769791575,-10.786580832372323 L 86.94545305916627,-7.8674739589056655 A 128.55989614747966 128.55989614747966 0 0 0 65.12609566760109,-11.095124522133176"/><text text-anchor="middle" pointer-events="none" font-size="8px" fill="#000000" x="55.43256233813831" y="-7.820503933426011" font-family="sans-serif">trek</text></g><g class="relationship" transform="translate(227.18096543831203 -28.866779109945682) rotate(206.21301043719916)"><path class="outline" fill="#A5ABB6" stroke="none" d="M 25 0.5 L 48.78314379955046 0.5 L 48.78314379955046 -0.5 L 25 -0.5 Z M 68.11908129955046 0.5 L 91.90222509910092 0.5 L 91.90222509910092 3.5 L 98.90222509910092 0 L 91.90222509910092 -3.5 L 91.90222509910092 -0.5 L 68.11908129955046 -0.5 Z"/><text text-anchor="middle" pointer-events="none" font-size="8px" fill="#000000" x="58.45111254955046" y="3" transform="rotate(180 58.45111254955046 0)" font-family="sans-serif">trek</text></g><g class="relationship" transform="translate(116.02108162144097 -83.59557970275971) rotate(501.72993307078735)"><path class="outline" fill="#A5ABB6" stroke="none" d="M 25 0.5 L 47.42351890399912 0.5 L 47.42351890399912 -0.5 L 25 -0.5 Z M 66.75945640399911 0.5 L 89.18297530799823 0.5 L 89.18297530799823 3.5 L 96.18297530799823 0 L 89.18297530799823 -3.5 L 89.18297530799823 -0.5 L 66.75945640399911 -0.5 Z"/><text text-anchor="middle" pointer-events="none" font-size="8px" fill="#000000" x="57.09148765399912" y="3" transform="rotate(180 57.09148765399912 0)" font-family="sans-serif">trek</text></g><g class="relationship" transform="translate(213.5529201727903 88.31065957214075) rotate(276.63384697316224)"><path class="outline" fill="#A5ABB6" stroke="none" d="M 24.018736134675446,6.953439040707552 L 24.277555179777966,5.987513214418485 A 127.55989614747966 127.55989614747966 0 0 0 32.45767732345948,7.893096094342198 L 32.262985973586694,8.873960650886431 A 128.55989614747966 128.55989614747966 0 0 1 24.018736134675446,6.953439040707552 Z M 78.64890047296622,9.547734011982953 L 78.48278012425016,8.561628525869793 A 127.55989614747966 127.55989614747966 0 0 0 86.7147981795831,6.894438334416779 L 86.02283354083362,3.975331460950121 L 93.64137499079689,5.7663719895790795 L 87.63741769791575,10.786580832372323 L 86.94545305916627,7.8674739589056655 A 128.55989614747966 128.55989614747966 0 0 1 78.64890047296622,9.547734011982953"/><text text-anchor="middle" pointer-events="none" font-size="8px" fill="#000000" x="55.432562338138375" y="13.82050393342601" font-family="sans-serif">twowheeler</text></g><g class="relationship" transform="translate(122.70988267502834 171.76483832289534) rotate(317.42744607108136)"><path class="outline" fill="#A5ABB6" stroke="none" d="M 24.018736134675446,6.953439040707552 L 24.277555179777966,5.987513214418485 A 138.2584195738938 138.2584195738938 0 0 0 35.125035842811215,8.431182430422837 L 34.944674809137325,9.414782907004707 A 139.2584195738938 139.2584195738938 0 0 1 24.018736134675446,6.953439040707552 Z M 81.35488182104918,10.060983469328988 L 81.20197606084504,9.072742694772302 A 138.2584195738938 138.2584195738938 0 0 0 92.1132880793306,6.932035800454822 L 91.41781171991242,4.013763600420965 L 99.03850260597929,5.795636328484739 L 93.04058989188816,10.823065400499965 L 92.34511353246998,7.904793200466108 A 139.2584195738938 139.2584195738938 0 0 1 81.35488182104918,10.060983469328988"/><text text-anchor="middle" pointer-events="none" font-size="8px" fill="#000000" x="58.1296276557381" y="14.18510611959772" font-family="sans-serif">twowheeler</text></g><g class="relationship" transform="translate(170.39490655984642 272.3600528847051) rotate(244.6377031488305)"><path class="outline" fill="#A5ABB6" stroke="none" d="M 25 0.5 L 41.15664752064793 0.5 L 41.15664752064793 -0.5 L 25 -0.5 Z M 63.16836627064793 0.5 L 79.32501379129586 0.5 L 79.32501379129586 3.5 L 86.32501379129586 0 L 79.32501379129586 -3.5 L 79.32501379129586 -0.5 L 63.16836627064793 -0.5 Z"/><text text-anchor="middle" pointer-events="none" font-size="8px" fill="#000000" x="52.16250689564793" y="3" transform="rotate(180 52.16250689564793 0)" font-family="sans-serif">road</text></g><g class="relationship" transform="translate(170.39490655984642 272.3600528847051) rotate(244.6377031488305)"><path class="outline" fill="#A5ABB6" stroke="none" d="M 21.40063509461097,-12.933012701892217 L 21.90063509461097,-12.06698729810778 A 63.93964343975088 63.93964343975088 0 0 1 42.433534913062346,-19.60209559378975 L 42.25466432063871,-20.58596820300601 A 64.93964343975088 64.93964343975088 0 0 0 21.40063509461097,-12.933012701892217 Z M 61.65898930640563,-21.164524828428284 L 61.5390543625197,-20.171743075355096 A 63.93964343975088 63.93964343975088 0 0 1 82.4844120715825,-13.87334467404547 L 81.14186680305632,-11.190515532643063 L 88.96810427960915,-11.187877237718126 L 84.2744724296174,-17.450450195915348 L 82.93192716109122,-14.76762105451294 A 64.93964343975088 64.93964343975088 0 0 0 61.65898930640563,-21.164524828428284"/><text text-anchor="middle" pointer-events="none" font-size="8px" fill="#000000" x="51.949986911538275" y="-18.104651339954444" transform="rotate(180 51.949986911538275 -21.104651339954444)" font-family="sans-serif">trek</text></g><g class="relationship" transform="translate(227.18096543831203 -28.866779109945682) rotate(515.8410248433916)"><path class="outline" fill="#A5ABB6" stroke="none" d="M 21.40063509461097,12.933012701892217 L 21.90063509461097,12.06698729810778 A 56.221514453729576 56.221514453729576 0 0 0 38.71657969992044,18.453002351198244 L 38.51568129418911,19.43261443287885 A 57.221514453729576 57.221514453729576 0 0 1 21.40063509461097,12.933012701892217 Z M 57.91792045823331,20.05037111184499 L 57.77974641281983,19.059963148844858 A 56.221514453729576 56.221514453729576 0 0 0 74.96787381468393,13.756619142991317 L 73.63618708928911,11.068383575670769 L 81.46237125933101,11.097389378290165 L 76.74345611521036,17.340933232752047 L 75.41176938981555,14.652697665431498 A 57.221514453729576 57.221514453729576 0 0 1 57.91792045823331,20.05037111184499"/><text text-anchor="middle" pointer-events="none" font-size="8px" fill="#000000" x="48.20632504907847" y="23.07051309766325" transform="rotate(180 48.20632504907847 20.07051309766325)" font-family="sans-serif">trek</text></g><g class="relationship" transform="translate(132.413755557594 13.641759740859131) rotate(191.24752278648998)"><path class="outline" fill="#A5ABB6" stroke="none" d="M 24.018736134675446,6.953439040707552 L 24.277555179777966,5.987513214418485 A 119.10584366081765 119.10584366081765 0 0 0 43.703396840326725,9.49902801921995 L 43.607675096443685,10.494436150464622 A 120.10584366081765 120.10584366081765 0 0 1 24.018736134675446,6.953439040707552 Z M 63.00111457200233,10.786069866581286 L 62.93536674134638,9.7882335960619 A 119.10584366081765 119.10584366081765 0 0 0 82.4580113978512,6.8624164348412835 L 81.76903775923915,3.9426021727181464 L 89.38574028257385,5.741446988433703 L 83.37664291600058,10.755502117672133 L 82.68766927738854,7.835687855548996 A 120.10584366081765 120.10584366081765 0 0 1 63.00111457200233,10.786069866581286"/><text text-anchor="middle" pointer-events="none" font-size="8px" fill="#000000" x="53.30601632132421" y="13.532425243008277" transform="rotate(180 53.30601632132421 10.532425243008277)" font-family="sans-serif">trek</text></g><g class="relationship" transform="translate(132.413755557594 13.641759740859131) rotate(191.24752278648998)"><path class="outline" fill="#A5ABB6" stroke="none" d="M 24.018736134675446,-6.953439040707552 L 24.277555179777966,-5.987513214418485 A 119.10584366081765 119.10584366081765 0 0 1 30.359718301239734,-7.44719239365925 L 30.15196445104723,-8.425373531143606 A 120.10584366081765 120.10584366081765 0 0 0 24.018736134675446,-6.953439040707552 Z M 76.51295503573748,-9.12253856904745 L 76.33470776249077,-8.13855284273832 A 119.10584366081765 119.10584366081765 0 0 1 82.4580113978512,-6.8624164348412835 L 81.76903775923915,-3.9426021727181464 L 89.38574028257385,-5.741446988433703 L 83.37664291600058,-10.755502117672133 L 82.68766927738854,-7.835687855548996 A 120.10584366081765 120.10584366081765 0 0 0 76.51295503573748,-9.12253856904745"/><text text-anchor="middle" pointer-events="none" font-size="8px" fill="#000000" x="53.30601632132418" y="-7.5324252430082765" transform="rotate(180 53.30601632132418 -10.532425243008277)" font-family="sans-serif">twowheeler</text></g><g class="relationship" transform="translate(227.18096543831203 -28.866779109945682) rotate(515.8410248433916)"><path class="outline" fill="#A5ABB6" stroke="none" d="M 25 0.5 L 37.4263077851678 0.5 L 37.4263077851678 -0.5 L 25 -0.5 Z M 59.4380265351678 0.5 L 71.8643343203356 0.5 L 71.8643343203356 3.5 L 78.8643343203356 0 L 71.8643343203356 -3.5 L 71.8643343203356 -0.5 L 59.4380265351678 -0.5 Z"/><text text-anchor="middle" pointer-events="none" font-size="8px" fill="#000000" x="48.4321671601678" y="3" transform="rotate(180 48.4321671601678 0)" font-family="sans-serif">road</text></g><g class="relationship" transform="translate(227.18096543831203 -28.866779109945682) rotate(515.8410248433916)"><path class="outline" fill="#A5ABB6" stroke="none" d="M 21.40063509461097,-12.933012701892217 L 21.90063509461097,-12.06698729810778 A 56.221514453729576 56.221514453729576 0 0 1 25.992418681789992,-14.210272164134622 L 25.56519835745217,-15.114419715407472 A 57.221514453729576 57.221514453729576 0 0 0 21.40063509461097,-12.933012701892217 Z M 71.11687229982668,-16.564760089942084 L 70.74803410706235,-15.63526647105148 A 56.221514453729576 56.221514453729576 0 0 1 74.96787381468393,-13.756619142991317 L 73.63618708928911,-11.068383575670769 L 81.46237125933101,-11.097389378290165 L 76.74345611521036,-17.340933232752047 L 75.41176938981555,-14.652697665431498 A 57.221514453729576 57.221514453729576 0 0 0 71.11687229982668,-16.564760089942084"/><text text-anchor="middle" pointer-events="none" font-size="8px" fill="#000000" x="48.206325049078465" y="-17.07051309766325" transform="rotate(180 48.206325049078465 -20.07051309766325)" font-family="sans-serif">twowheeler</text></g><g class="relationship" transform="translate(122.70988267502834 171.76483832289534) rotate(481.9351477973296)"><path class="outline" fill="#A5ABB6" stroke="none" d="M 25 0.5 L 44.13520358808623 0.5 L 44.13520358808623 -0.5 L 25 -0.5 Z M 63.47114108808623 0.5 L 82.60634467617245 0.5 L 82.60634467617245 3.5 L 89.60634467617245 0 L 82.60634467617245 -3.5 L 82.60634467617245 -0.5 L 63.47114108808623 -0.5 Z"/><text text-anchor="middle" pointer-events="none" font-size="8px" fill="#000000" x="53.80317233808623" y="3" transform="rotate(180 53.80317233808623 0)" font-family="sans-serif">trek</text></g><g class="relationship" transform="translate(62.08782147477509 269.0252101907141) rotate(208.6821539615305)"><path class="outline" fill="#A5ABB6" stroke="none" d="M 21.40063509461097,-12.933012701892217 L 21.90063509461097,-12.06698729810778 A 67.29288510615598 67.29288510615598 0 0 1 44.05524706983881,-20.094014843216684 L 43.884473732364555,-21.07932518377335 A 68.29288510615598 68.29288510615598 0 0 0 21.40063509461097,-12.933012701892217 Z M 63.28889910765825,-21.642291104532262 L 63.17553705760084,-20.648737358826082 A 67.29288510615598 67.29288510615598 0 0 1 85.75825732085268,-13.91964020582249 L 84.4114055864306,-11.238970437745067 L 92.23762873543701,-11.223764453517235 L 87.55405963341543,-17.493866563259054 L 86.20720789899336,-14.81319679518163 A 68.29288510615598 68.29288510615598 0 0 0 63.28889910765825,-21.642291104532262"/><text text-anchor="middle" pointer-events="none" font-size="8px" fill="#000000" x="53.58108115939379" y="-18.554011422278222" transform="rotate(180 53.58108115939379 -21.554011422278222)" font-family="sans-serif">trek</text></g><g class="relationship" transform="translate(-38.429687132824164 214.03416749537985) rotate(296.3837211378203)"><path class="outline" fill="#A5ABB6" stroke="none" d="M 21.40063509461097,12.933012701892217 L 21.90063509461097,12.06698729810778 A 66.44800298469244 66.44800298469244 0 0 0 43.64629467406181,19.970429269139558 L 43.473552960280884,20.955396426114874 A 67.44800298469244 67.44800298469244 0 0 1 21.40063509461097,12.933012701892217 Z M 62.8779862117336,21.522214320192347 L 62.76303322155336,20.528843387434293 A 66.44800298469244 66.44800298469244 0 0 0 84.93295187677023,13.90820804361003 L 83.58716356331196,11.227004243941092 L 91.4133921282408,11.21490261215223 L 86.72733629471459,17.483146443168614 L 85.38154798125632,14.801942643499677 A 67.44800298469244 67.44800298469244 0 0 1 62.8779862117336,21.522214320192347"/><text text-anchor="middle" pointer-events="none" font-size="8px" fill="#000000" x="53.16986953362178" y="24.440787656864345" font-family="sans-serif">trek</text></g><g class="relationship" transform="translate(12.121617025665085 112.1265355948112) rotate(274.15163958871705)"><path class="outline" fill="#A5ABB6" stroke="none" d="M 25 0.5 L 47.323335346519286 0.5 L 47.323335346519286 -0.5 L 25 -0.5 Z M 66.65927284651929 0.5 L 88.98260819303857 0.5 L 88.98260819303857 3.5 L 95.98260819303857 0 L 88.98260819303857 -3.5 L 88.98260819303857 -0.5 L 66.65927284651929 -0.5 Z"/><text text-anchor="middle" pointer-events="none" font-size="8px" fill="#000000" x="56.991304096519286" y="3" font-family="sans-serif">trek</text></g><g class="relationship" transform="translate(-38.429687132824164 214.03416749537985) rotate(296.3837211378203)"><path class="outline" fill="#A5ABB6" stroke="none" d="M 25 0.5 L 42.37251918774098 0.5 L 42.37251918774098 -0.5 L 25 -0.5 Z M 64.38423793774098 0.5 L 81.75675712548195 0.5 L 81.75675712548195 3.5 L 88.75675712548195 0 L 81.75675712548195 -3.5 L 81.75675712548195 -0.5 L 64.38423793774098 -0.5 Z"/><text text-anchor="middle" pointer-events="none" font-size="8px" fill="#000000" x="53.37837856274098" y="3" font-family="sans-serif">road</text></g><g class="relationship" transform="translate(-38.429687132824164 214.03416749537985) rotate(296.3837211378203)"><path class="outline" fill="#A5ABB6" stroke="none" d="M 21.40063509461097,-12.933012701892217 L 21.90063509461097,-12.06698729810778 A 66.44800298469244 66.44800298469244 0 0 1 30.710876680259517,-16.321858032066572 L 30.343465188414953,-17.251916522517874 A 67.44800298469244 67.44800298469244 0 0 0 21.40063509461097,-12.933012701892217 Z M 76.20186446766019,-18.5914743940821 L 75.88936851599374,-17.64155530268954 A 66.44800298469244 66.44800298469244 0 0 1 84.93295187677023,-13.90820804361003 L 83.58716356331196,-11.227004243941092 L 91.4133921282408,-11.21490261215223 L 86.72733629471459,-17.483146443168614 L 85.38154798125632,-14.801942643499677 A 67.44800298469244 67.44800298469244 0 0 0 76.20186446766019,-18.5914743940821"/><text text-anchor="middle" pointer-events="none" font-size="8px" fill="#000000" x="53.16986953362177" y="-18.440787656864345" font-family="sans-serif">twowheeler</text></g><g class="relationship" transform="translate(62.08782147477509 269.0252101907141) rotate(208.6821539615305)"><path class="outline" fill="#A5ABB6" stroke="none" d="M 25 0.5 L 42.78241235970777 0.5 L 42.78241235970777 -0.5 L 25 -0.5 Z M 64.79413110970776 0.5 L 82.57654346941554 0.5 L 82.57654346941554 3.5 L 89.57654346941554 0 L 82.57654346941554 -3.5 L 82.57654346941554 -0.5 L 64.79413110970776 -0.5 Z"/><text text-anchor="middle" pointer-events="none" font-size="8px" fill="#000000" x="53.78827173470777" y="3" transform="rotate(180 53.78827173470777 0)" font-family="sans-serif">road</text></g><g class="relationship" transform="translate(62.08782147477509 269.0252101907141) rotate(208.6821539615305)"><path class="outline" fill="#A5ABB6" stroke="none" d="M 21.40063509461097,12.933012701892217 L 21.90063509461097,12.06698729810778 A 67.29288510615598 67.29288510615598 0 0 0 31.10623812036713,16.487149213787994 L 30.74303717440136,17.418860044920464 A 68.29288510615598 68.29288510615598 0 0 1 21.40063509461097,12.933012701892217 Z M 76.620449694276,18.749866724158267 L 76.31187623140603,17.798666210064397 A 67.29288510615598 67.29288510615598 0 0 0 85.75825732085268,13.91964020582249 L 84.4114055864306,11.238970437745067 L 92.23762873543701,11.223764453517235 L 87.55405963341543,17.493866563259054 L 86.20720789899336,14.81319679518163 A 68.29288510615598 68.29288510615598 0 0 1 76.620449694276,18.749866724158267"/><text text-anchor="middle" pointer-events="none" font-size="8px" fill="#000000" x="53.58108115939381" y="24.554011422278222" transform="rotate(180 53.58108115939381 21.554011422278222)" font-family="sans-serif">twowheeler</text></g><g class="relationship" transform="translate(122.70988267502834 171.76483832289534) rotate(208.33720274622493)"><path class="outline" fill="#A5ABB6" stroke="none" d="M 25 0.5 L 49.65418429257875 0.5 L 49.65418429257875 -0.5 L 25 -0.5 Z M 68.99012179257875 0.5 L 93.6443060851575 0.5 L 93.6443060851575 3.5 L 100.6443060851575 0 L 93.6443060851575 -3.5 L 93.6443060851575 -0.5 L 68.99012179257875 -0.5 Z"/><text text-anchor="middle" pointer-events="none" font-size="8px" fill="#000000" x="59.32215304257875" y="3" transform="rotate(180 59.32215304257875 0)" font-family="sans-serif">trek</text></g><g class="relationship" transform="translate(213.5529201727903 88.31065957214075) rotate(222.62203590732008)"><path class="outline" fill="#A5ABB6" stroke="none" d="M 24.018736134675446,-6.953439040707552 L 24.277555179777966,-5.987513214418485 A 112.22961620702772 112.22961620702772 0 0 1 41.98174112099561,-9.236959576513641 L 41.88067175498456,-10.231838957772553 A 113.22961620702772 113.22961620702772 0 0 0 24.018736134675446,-6.953439040707552 Z M 61.27624800449562,-10.532102130808681 L 61.206023172935176,-9.534570941806408 A 112.22961620702772 112.22961620702772 0 0 1 79.0023104522693,-6.8347078762506355 L 78.31592496754487,-3.914284111390542 L 85.9310301510636,-5.7198790393703 L 79.91749109856855,-10.728606229397426 L 79.23110561384412,-7.808182464537333 A 113.22961620702772 113.22961620702772 0 0 0 61.27624800449562,-10.532102130808681"/><text text-anchor="middle" pointer-events="none" font-size="8px" fill="#000000" x="51.57975768332917" y="-7.298138590427143" transform="rotate(180 51.57975768332917 -10.298138590427143)" font-family="sans-serif">trek</text></g><g class="relationship" transform="translate(213.5529201727903 88.31065957214075) rotate(222.62203590732008)"><path class="outline" fill="#A5ABB6" stroke="none" d="M 24.018736134675446,6.953439040707552 L 24.277555179777966,5.987513214418485 A 112.22961620702772 112.22961620702772 0 0 0 28.661015540839436,7.068048423263562 L 28.441254460195918,8.04360214676339 A 113.22961620702772 113.22961620702772 0 0 1 24.018736134675446,6.953439040707552 Z M 74.77696102608881,8.760925834359256 L 74.58750313983967,7.779036986608148 A 112.22961620702772 112.22961620702772 0 0 0 79.0023104522693,6.8347078762506355 L 78.31592496754487,3.914284111390542 L 85.9310301510636,5.7198790393703 L 79.91749109856855,10.728606229397426 L 79.23110561384412,7.808182464537333 A 113.22961620702772 113.22961620702772 0 0 1 74.77696102608881,8.760925834359256"/><text text-anchor="middle" pointer-events="none" font-size="8px" fill="#000000" x="51.579757683329184" y="13.298138590427143" transform="rotate(180 51.579757683329184 10.298138590427143)" font-family="sans-serif">twowheeler</text></g><g class="relationship" transform="translate(170.39490655984642 272.3600528847051) rotate(181.7636155844972)"><path class="outline" fill="#A5ABB6" stroke="none" d="M 24.018736134675446,-6.953439040707552 L 24.277555179777966,-5.987513214418485 A 108.41759933445513 108.41759933445513 0 0 1 41.02900436528921,-9.09031186288756 L 40.924693898944604,-10.084856646500128 A 109.41759933445513 109.41759933445513 0 0 0 24.018736134675446,-6.953439040707552 Z M 60.321495514514105,-10.390119536223224 L 60.24853283893682,-9.3927848642236 A 108.41759933445513 108.41759933445513 0 0 1 77.08932437772505,-6.818654017746321 L 76.40443844173762,-3.8978782210295244 L 84.01861555939547,-5.7073827998951465 L 78.00250562570827,-10.71302174670205 L 77.31761968972084,-7.792245949985253 A 109.41759933445513 109.41759933445513 0 0 0 60.321495514514105,-10.390119536223224"/><text text-anchor="middle" pointer-events="none" font-size="8px" fill="#000000" x="50.624184085028965" y="-7.168267575297406" transform="rotate(180 50.624184085028965 -10.168267575297406)" font-family="sans-serif">trek</text></g><g class="relationship" transform="translate(170.39490655984642 272.3600528847051) rotate(181.7636155844972)"><path class="outline" fill="#A5ABB6" stroke="none" d="M 24.018736134675446,6.953439040707552 L 24.277555179777966,5.987513214418485 A 108.41759933445513 108.41759933445513 0 0 0 39.705406955036224,8.943265456122163 L 39.58888816256765,9.936453943269328 A 109.41759933445513 109.41759933445513 0 0 1 24.018736134675446,6.953439040707552 Z M 61.66130962087376,10.283825189884553 L 61.57610198548645,9.287461973546414 A 108.41759933445513 108.41759933445513 0 0 0 77.08932437772505,6.818654017746321 L 76.40443844173762,3.8978782210295244 L 84.01861555939547,5.7073827998951465 L 78.00250562570827,10.71302174670205 L 77.31761968972084,7.792245949985253 A 109.41759933445513 109.41759933445513 0 0 1 61.66130962087376,10.283825189884553"/><text text-anchor="middle" pointer-events="none" font-size="8px" fill="#000000" x="50.624184085028986" y="13.168267575297406" transform="rotate(180 50.624184085028986 10.168267575297406)" font-family="sans-serif">road</text></g></g><g class="layer nodes"><g class="node" transform="translate(170.39490655984642,272.3600528847051)"><circle class="outline" cx="0" cy="0" r="25" fill="#F79767" stroke="#f36924" stroke-width="2px"/><text text-anchor="middle" pointer-events="none" font-family="sans-serif" dy="1.5625" font-size="25" fill="#FFFFFF"/><text text-anchor="middle" pointer-events="none" x="0" y="5" font-size="10px" fill="#FFFFFF" font-family="sans-serif"> Darjeeling</text></g><g class="node" transform="translate(20.880321044624917,-8.538606799745068)"><circle class="outline" cx="0" cy="0" r="25" fill="#57C7E3" stroke="#23b3d7" stroke-width="2px"/><text text-anchor="middle" pointer-events="none" font-family="sans-serif" dy="1.5625" font-size="25" fill="#2A2C34"/><text text-anchor="middle" pointer-events="none" x="0" y="5" font-size="10px" fill="#2A2C34" font-family="sans-serif"> Sandak…</text></g><g class="node" transform="translate(122.70988267502834,171.76483832289534)"><circle class="outline" cx="0" cy="0" r="25" fill="#F79767" stroke="#f36924" stroke-width="2px"/><text text-anchor="middle" pointer-events="none" font-family="sans-serif" dy="1.5625" font-size="25" fill="#FFFFFF"/><text text-anchor="middle" pointer-events="none" x="0" y="5" font-size="10px" fill="#FFFFFF" font-family="sans-serif"> Rimbik</text></g><g class="node" transform="translate(213.5529201727903,88.31065957214075)"><circle class="outline" cx="0" cy="0" r="25" fill="#F16667" stroke="#eb2728" stroke-width="2px"/><text text-anchor="middle" pointer-events="none" font-family="sans-serif" dy="1.5625" font-size="25" fill="#FFFFFF"/><text text-anchor="middle" pointer-events="none" x="0" y="5" font-size="10px" fill="#FFFFFF" font-family="sans-serif"> Sirikhola</text></g><g class="node" transform="translate(227.18096543831203,-28.866779109945682)"><circle class="outline" cx="0" cy="0" r="25" fill="#F16667" stroke="#eb2728" stroke-width="2px"/><text text-anchor="middle" pointer-events="none" font-family="sans-serif" dy="1.5625" font-size="25" fill="#FFFFFF"/><text text-anchor="middle" pointer-events="none" x="0" y="5" font-size="10px" fill="#FFFFFF" font-family="sans-serif"> Rammam</text></g><g class="node" transform="translate(116.02108162144097,-83.59557970275971)"><circle class="outline" cx="0" cy="0" r="25" fill="#57C7E3" stroke="#23b3d7" stroke-width="2px"/><text text-anchor="middle" pointer-events="none" font-family="sans-serif" dy="1.5625" font-size="25" fill="#2A2C34"/><text text-anchor="middle" pointer-events="none" x="0" y="5" font-size="10px" fill="#2A2C34" font-family="sans-serif"> Sabargr…</text></g><g class="node" transform="translate(132.413755557594,13.641759740859131)"><circle class="outline" cx="0" cy="0" r="25" fill="#F16667" stroke="#eb2728" stroke-width="2px"/><text text-anchor="middle" pointer-events="none" font-family="sans-serif" dy="1.5625" font-size="25" fill="#FFFFFF"/><text text-anchor="middle" pointer-events="none" x="0" y="5" font-size="10px" fill="#FFFFFF" font-family="sans-serif"> Gurdum</text></g><g class="node" transform="translate(62.08782147477509,269.0252101907141)"><circle class="outline" cx="0" cy="0" r="25" fill="#F16667" stroke="#eb2728" stroke-width="2px"/><text text-anchor="middle" pointer-events="none" font-family="sans-serif" dy="1.5625" font-size="25" fill="#FFFFFF"/><text text-anchor="middle" pointer-events="none" x="0" y="5" font-size="10px" fill="#FFFFFF" font-family="sans-serif"> Tumbling</text></g><g class="node" transform="translate(-38.429687132824164,214.03416749537985)"><circle class="outline" cx="0" cy="0" r="25" fill="#F16667" stroke="#eb2728" stroke-width="2px"/><text text-anchor="middle" pointer-events="none" font-family="sans-serif" dy="1.5625" font-size="25" fill="#FFFFFF"/><text text-anchor="middle" pointer-events="none" x="0" y="5" font-size="10px" fill="#FFFFFF" font-family="sans-serif"> Gairibus</text></g><g class="node" transform="translate(12.121617025665085,112.1265355948112)"><circle class="outline" cx="0" cy="0" r="25" fill="#F16667" stroke="#eb2728" stroke-width="2px"/><text text-anchor="middle" pointer-events="none" font-family="sans-serif" dy="1.5625" font-size="25" fill="#FFFFFF"/><text text-anchor="middle" pointer-events="none" x="0" y="5" font-size="10px" fill="#FFFFFF" font-family="sans-serif"> BhikeBh…</text></g></g></svg>